<mxfile host="app.diagrams.net" agent="Mozilla/5.0 (Windows NT 10.0; Win64; x64) AppleWebKit/537.36 (KHTML, like Gecko) Chrome/130.0.0.0 Safari/537.36" version="24.8.6">
  <diagram id="C5RBs43oDa-KdzZeNtuy" name="Page-1">
    <mxGraphModel dx="1050" dy="522" grid="1" gridSize="10" guides="1" tooltips="1" connect="1" arrows="1" fold="1" page="1" pageScale="1" pageWidth="827" pageHeight="1169" math="0" shadow="0">
      <root>
        <mxCell id="WIyWlLk6GJQsqaUBKTNV-0" />
        <mxCell id="WIyWlLk6GJQsqaUBKTNV-1" parent="WIyWlLk6GJQsqaUBKTNV-0" />
        <mxCell id="MjWlhen2TvSUoxQKlvh8-2" value="" style="edgeStyle=orthogonalEdgeStyle;rounded=0;orthogonalLoop=1;jettySize=auto;html=1;" edge="1" parent="WIyWlLk6GJQsqaUBKTNV-1" source="MjWlhen2TvSUoxQKlvh8-0" target="MjWlhen2TvSUoxQKlvh8-1">
          <mxGeometry relative="1" as="geometry" />
        </mxCell>
        <mxCell id="MjWlhen2TvSUoxQKlvh8-0" value="START" style="ellipse;whiteSpace=wrap;html=1;" vertex="1" parent="WIyWlLk6GJQsqaUBKTNV-1">
          <mxGeometry x="340" y="40" width="120" height="80" as="geometry" />
        </mxCell>
        <mxCell id="MjWlhen2TvSUoxQKlvh8-4" value="" style="edgeStyle=orthogonalEdgeStyle;rounded=0;orthogonalLoop=1;jettySize=auto;html=1;" edge="1" parent="WIyWlLk6GJQsqaUBKTNV-1" source="MjWlhen2TvSUoxQKlvh8-1" target="MjWlhen2TvSUoxQKlvh8-3">
          <mxGeometry relative="1" as="geometry" />
        </mxCell>
        <mxCell id="MjWlhen2TvSUoxQKlvh8-1" value="Nhập a,b" style="shape=parallelogram;perimeter=parallelogramPerimeter;whiteSpace=wrap;html=1;fixedSize=1;" vertex="1" parent="WIyWlLk6GJQsqaUBKTNV-1">
          <mxGeometry x="340" y="210" width="120" height="60" as="geometry" />
        </mxCell>
        <mxCell id="MjWlhen2TvSUoxQKlvh8-6" value="" style="edgeStyle=orthogonalEdgeStyle;rounded=0;orthogonalLoop=1;jettySize=auto;html=1;" edge="1" parent="WIyWlLk6GJQsqaUBKTNV-1" source="MjWlhen2TvSUoxQKlvh8-3" target="MjWlhen2TvSUoxQKlvh8-5">
          <mxGeometry relative="1" as="geometry" />
        </mxCell>
        <mxCell id="MjWlhen2TvSUoxQKlvh8-3" value="Tổng=a+b" style="whiteSpace=wrap;html=1;" vertex="1" parent="WIyWlLk6GJQsqaUBKTNV-1">
          <mxGeometry x="340" y="350" width="120" height="60" as="geometry" />
        </mxCell>
        <mxCell id="MjWlhen2TvSUoxQKlvh8-8" value="" style="edgeStyle=orthogonalEdgeStyle;rounded=0;orthogonalLoop=1;jettySize=auto;html=1;" edge="1" parent="WIyWlLk6GJQsqaUBKTNV-1" source="MjWlhen2TvSUoxQKlvh8-5" target="MjWlhen2TvSUoxQKlvh8-7">
          <mxGeometry relative="1" as="geometry" />
        </mxCell>
        <mxCell id="MjWlhen2TvSUoxQKlvh8-5" value="Tổng" style="shape=parallelogram;perimeter=parallelogramPerimeter;whiteSpace=wrap;html=1;fixedSize=1;" vertex="1" parent="WIyWlLk6GJQsqaUBKTNV-1">
          <mxGeometry x="340" y="490" width="120" height="60" as="geometry" />
        </mxCell>
        <mxCell id="MjWlhen2TvSUoxQKlvh8-7" value="" style="shape=waypoint;sketch=0;size=6;pointerEvents=1;points=[];fillColor=default;resizable=0;rotatable=0;perimeter=centerPerimeter;snapToPoint=1;" vertex="1" parent="WIyWlLk6GJQsqaUBKTNV-1">
          <mxGeometry x="390" y="610" width="20" height="20" as="geometry" />
        </mxCell>
        <mxCell id="MjWlhen2TvSUoxQKlvh8-9" value="END" style="ellipse;whiteSpace=wrap;html=1;" vertex="1" parent="WIyWlLk6GJQsqaUBKTNV-1">
          <mxGeometry x="340" y="620" width="120" height="80" as="geometry" />
        </mxCell>
      </root>
    </mxGraphModel>
  </diagram>
</mxfile>
